<svg version="1.1" id="_x2014_ÎÓÈ_x5F_1" xmlns="http://www.w3.org/2000/svg" x="0" y="0" viewBox="0 0 2000 2000" style="enable-background:new 0 0 2000 2000" xml:space="preserve">
    <style>
        .st1{fill:#6ebb40}
    </style>
    <path class="st1" d="M1575.1 1015.7c0 329.5-268 597.5-597.5 597.6-329.7 0-597.7-267.9-597.7-597.6 0-329.5 268.1-597.6 597.6-597.6 154.8 0 296 59.2 402.2 156 16.4 15 32 30.8 46.6 47.5 6.5 7.4 12.9 15 19 22.7 1.7 2.1 1.3 5.3-.9 6.9l-97.1 73.4c-2.1 1.6-5.1 1.2-6.8-.9-1.5-1.9-3.8-4.7-6.8-8.3-14.8-17.5-30.8-33.9-47.9-49-81.6-72.1-188.5-116.1-305.4-116.9C721.7 548 512 756 511.5 1014.8c-.5 257.4 208.8 467 466.1 467 254.6 0 462.1-196 465.9-449.6.1-3.6 1.7-7 4.5-9.3 19.4-15.7 97-78.5 116.1-94 1.9-1.5 4.7-.4 5.1 2 3.9 27.7 5.9 56 5.9 84.8z"/>
    <path class="st1" d="M1812.7 684.7c-95.6 41.4-192.8 102.2-284.7 169.8-39.2 28.8-77.4 58.9-114.1 89.3-215.8 178.5-379.4 367.1-381.9 370-14.7 17-36 26.7-58.3 26.7-2.4 0-4.9-.1-7.3-.3-24.8-2.4-47-16.7-59.4-38.3-78.6-137-191.2-258-192.3-259.2-29.1-31-27.4-79.7 3.6-108.8 31-29 79.8-27.4 108.8 3.6 4.1 4.4 82.1 88.1 157.8 199.3 77.6-82.6 213.1-219 373.5-346.4 34.2-27.2 69.5-53.9 105.6-79.6 92.4-65.8 190-125 287.5-167.2 39-16.9 84.3 1 101.2 40 16.9 38.9-1 84.2-40 101.1z"/>
</svg>
